<svg width="43" height="40" viewBox="0 0 43 40" fill="none" xmlns="http://www.w3.org/2000/svg">
<path d="M25 0H15V10H25V0Z" fill="#00778D"/>
<path d="M10 30H0V40H10V30Z" fill="#00778D"/>
<path d="M10 15H0V25H10V15Z" fill="#00778D"/>
<path d="M10 0H0V10H10V0Z" fill="#00778D"/>
<path d="M25 21.05V15H15V25H21.05L25 21.05Z" fill="#00778D"/>
<path d="M42.2 18.225L39.275 15.3C38.875 14.9 38.225 14.9 37.825 15.3L35.625 17.5L40 21.875L42.2 19.675C42.6 19.275 42.6 18.625 42.2 18.225Z" fill="#00778D"/>
<path d="M17.5 35.6252V40.0002H21.875L38.55 23.3252L34.175 18.9502L17.5 35.6252Z" fill="#00778D"/>
<path d="M40 0H30V10H40V0Z" fill="#00778D"/>
</svg>
