<svg width="48" height="48" viewBox="0 0 48 48" fill="none" xmlns="http://www.w3.org/2000/svg">
<path d="M41.85 26.35C41.95 25.6 42 24.825 42 24C42 23.2 41.95 22.4 41.825 21.65L46.9 17.7C47.35 17.35 47.475 16.675 47.2 16.175L42.4 7.875C42.1 7.325 41.475 7.15 40.925 7.325L34.95 9.725C33.7 8.775 32.375 7.975 30.9 7.375L30 1.025C29.9 0.425 29.4 0 28.8 0H19.2C18.6 0 18.125 0.425 18.025 1.025L17.125 7.375C15.65 7.975 14.3 8.8 13.075 9.725L7.10003 7.325C6.55003 7.125 5.92503 7.325 5.62503 7.875L0.85003 16.175C0.55003 16.7 0.65003 17.35 1.15003 17.7L6.22503 21.65C6.10003 22.4 6.00003 23.225 6.00003 24C6.00003 24.775 6.05003 25.6 6.17503 26.35L1.10003 30.3C0.65003 30.65 0.52503 31.325 0.80003 31.825L5.60003 40.125C5.90003 40.675 6.52503 40.85 7.07503 40.675L13.05 38.275C14.3 39.225 15.625 40.025 17.1 40.625L18 46.975C18.125 47.575 18.6 48 19.2 48H28.8C29.4 48 29.9 47.575 29.975 46.975L30.875 40.625C32.35 40.025 33.7 39.225 34.925 38.275L40.9 40.675C41.45 40.875 42.075 40.675 42.375 40.125L47.175 31.825C47.475 31.275 47.35 30.65 46.875 30.3L41.85 26.35ZM24 33C19.05 33 15 28.95 15 24C15 19.05 19.05 15 24 15C28.95 15 33 19.05 33 24C33 28.95 28.95 33 24 33Z" fill="#F6F6F6"/>
</svg>
