<svg width="40" height="50" viewBox="0 0 40 50" fill="none" xmlns="http://www.w3.org/2000/svg">
<path d="M40 43.975V15L25 0H5C2.25 0 0.0250006 2.25 0.0250006 5L0 45C0 47.75 2.225 50 4.975 50H35C36.125 50 37.125 49.625 37.975 49L26.9 37.925C24.9 39.225 22.55 40 20 40C13.1 40 7.5 34.4 7.5 27.5C7.5 20.6 13.1 15 20 15C26.9 15 32.5 20.6 32.5 27.5C32.5 30.05 31.725 32.4 30.425 34.375L40 43.975ZM12.5 27.5C12.5 31.65 15.85 35 20 35C24.15 35 27.5 31.65 27.5 27.5C27.5 23.35 24.15 20 20 20C15.85 20 12.5 23.35 12.5 27.5Z" fill="#F6F6F6"/>
</svg>
