<svg width="294" height="106" viewBox="0 0 294 106" fill="none" xmlns="http://www.w3.org/2000/svg">
<g clip-path="url(#clip0_75_401)">
<path d="M59.1774 13.676C54.484 15.98 49.5347 14.9986 44.5853 14.4013C45.0547 14.2733 44.756 13.8466 44.244 13.804C43.6893 13.7613 43.1773 13.932 42.7507 14.2306C40.7453 14.06 38.7827 14.0173 36.82 14.3586C34.1747 14.8706 31.4867 16.0226 29.78 18.1986C28.116 20.3746 27.5187 23.3186 28.756 25.836C28.884 26.092 29.652 26.0066 29.524 25.7506C28.2013 22.892 29.2253 19.564 31.444 17.4733C34.0467 15.084 37.844 14.5293 41.2573 14.7C41.5133 14.7 41.812 14.7 42.068 14.7426C41.5133 15.2546 41.044 15.9373 40.7027 16.492C39.1667 18.8386 38.484 21.74 37.716 24.3426C37.2467 25.8786 36.82 27.4147 36.3933 28.9507C34.4307 28.8653 32.596 29.292 31.188 31.2547C30.9747 31.5533 31.9133 31.6387 32.084 31.3827C33.1933 29.932 34.6867 29.5053 36.2653 29.548C35.156 33.644 34.1747 37.7827 32.724 41.7507C32.1267 43.4147 31.316 44.908 29.9933 46.1453C27.5187 48.4493 23.764 48.364 21.7587 45.5053C21.6307 45.292 20.9053 45.3347 21.076 45.5907C22.9533 49.004 27.6893 48.876 30.676 47.1693C33.5347 45.5053 34.9427 42.8173 35.9667 39.8307C37.1187 36.5453 38.0573 33.2173 38.9533 29.8893C39.8493 30.06 40.7027 30.2733 41.5133 30.4013C43.732 30.828 46.1214 30.8707 48.084 29.5907C48.6814 29.2067 47.572 28.908 47.2307 29.1213C44.884 30.5293 41.9827 29.804 39.124 29.292C39.9347 26.3053 40.788 23.3186 41.812 20.3746C42.324 19.0093 42.7933 17.6866 43.3053 16.3213C43.3907 16.0653 43.6467 15.3826 43.9453 14.9133C49.3214 15.5106 54.9107 16.7053 59.9027 14.1026C60.4147 13.804 59.476 13.548 59.1774 13.676ZM49.3364 33.8147C50.1044 34.8387 50.6164 34.8813 52.3657 34.668C51.4697 37.1853 49.123 43.4573 53.3897 43.7133C54.8404 43.7987 55.907 43.0307 56.5897 41.9213C57.827 39.9587 59.235 36.588 59.875 34.3693C59.9604 34.156 59.4484 34.1133 59.363 34.284C58.979 35.4787 56.2057 43.7133 53.7737 43.0307C52.6217 42.732 53.5604 40.2147 53.731 39.404C54.0724 37.7827 54.5844 36.1613 55.139 34.5827C55.4377 33.6867 53.7737 33.388 52.9204 33.7293C52.323 33.6867 52.0244 33.5587 51.683 33.004C51.8537 32.3213 51.8964 31.34 51.683 30.6573C51.427 29.676 50.3177 29.804 49.635 30.316C48.611 31.084 48.5684 32.7907 49.3364 33.8147ZM51.2137 30.956C51.2137 31.1693 51.2564 31.3827 51.2564 31.596C51.2564 31.6813 51.2137 31.7667 51.2137 31.852C51.2137 32.0227 51.1284 32.3213 51.1284 32.4067C50.915 31.724 51.0857 31.1693 51.1284 30.828C51.2137 30.6147 51.171 30.6147 51.2137 30.956ZM73.5594 34.4973C73.09 35.9053 70.402 44.14 68.0554 42.7747C66.4767 41.836 67.9274 37.8253 68.3114 36.5027C68.9514 34.3693 69.762 32.2787 70.6154 30.2307C71.0847 29.1213 68.3967 29.036 67.9274 29.804C67.842 29.932 67.7994 30.06 67.714 30.1453C67.6287 30.316 67.6287 30.4013 67.6714 30.5293C67.5434 30.7853 67.458 31.0413 67.3727 31.2973C66.6474 29.6333 63.6607 29.548 62.1247 30.2733C59.6927 31.468 58.4554 33.9853 57.8154 36.5027C57.218 38.8493 56.8767 41.9213 59.5647 43.0307C61.6127 43.8413 63.0634 42.5613 64.0874 40.94C64.642 40.044 65.1114 39.148 65.538 38.2093C65.4954 38.38 65.4954 38.508 65.4527 38.6787C65.282 40.5133 65.538 43.5 67.97 43.628C69.2074 43.6707 70.2314 42.6893 70.914 41.7933C72.5354 39.7453 73.474 37.1 74.1994 34.5827C74.242 34.3267 73.6447 34.284 73.5594 34.4973ZM64.3434 38.5507C63.7887 39.7027 63.1914 40.8547 62.2954 41.7933C61.3994 42.6893 60.8447 42.604 60.418 41.3667C59.6927 39.1053 60.4607 36.46 61.3567 34.3267C61.7407 33.4307 62.1674 32.5773 62.8074 31.852C63.234 31.34 63.7034 30.7427 64.3434 30.4867C65.7087 29.9747 66.6474 31.084 66.7327 32.3213C66.05 34.412 65.282 36.5453 64.3434 38.5507ZM86.9124 34.796C86.6564 35.9907 82.7311 44.3533 81.2377 42.732C80.7257 42.1773 81.3657 40.6413 81.5364 40.044C81.9204 38.6787 82.3471 37.356 82.7311 35.9907C83.2431 34.156 84.3951 30.7427 82.0057 29.676C79.6164 28.6093 78.1231 30.444 77.0137 32.4067C76.459 33.388 76.0324 34.412 75.6484 35.436C75.9897 33.8147 76.3737 32.1507 76.6724 30.5293C76.8857 29.6333 74.1977 29.5053 73.9844 30.316C73.003 34.2413 72.1924 38.2093 71.2964 42.1347C71.2537 42.2627 71.2537 42.3907 71.1684 42.6467C70.9977 43.5853 73.7284 43.6707 73.9844 42.6467C74.155 41.836 74.3257 41.0253 74.539 40.2147C75.3924 37.9533 76.1177 35.692 77.1844 33.5587C77.5684 32.7907 78.8484 29.8467 80.0857 30.188C80.5551 30.2733 80.6831 31.8093 80.6831 32.364C80.5977 34.5827 76.2457 44.78 81.9204 43.372C83.3284 43.0307 84.3097 41.4947 84.9924 40.3853C86.1017 38.6787 87.0831 36.7587 87.5097 34.796C87.5524 34.5827 86.9977 34.5827 86.9124 34.796ZM97.4307 34.6253C96.3641 36.46 92.0974 45.5907 88.7694 41.4947C87.1054 39.404 87.9161 36.332 88.9401 34.156C89.4947 33.0893 90.1347 32.0227 91.0734 31.2547C91.3294 31.0413 91.7987 30.5293 92.1401 30.4867C93.2067 30.3587 93.7187 31.98 93.5907 32.748C93.5481 33.1747 94.7427 33.2173 94.8281 32.748C95.2974 29.9747 92.0547 28.8653 89.9214 29.7187C87.4041 30.7427 85.9107 33.9427 85.3134 36.4173C84.7161 39.1053 85.2281 42.6893 88.4281 43.3293C89.7934 43.5853 91.4147 43.1587 92.5667 42.4333C95.1267 40.7693 96.8334 37.356 98.0707 34.7533C98.1987 34.4973 97.5161 34.412 97.4307 34.6253ZM111.643 34.4973C111.173 35.9053 108.485 44.14 106.139 42.7747C104.56 41.836 106.011 37.8253 106.395 36.5027C107.035 34.3693 107.845 32.2787 108.699 30.2307C109.168 29.1213 106.48 29.036 106.011 29.804C105.925 29.932 105.883 30.06 105.797 30.1453C105.712 30.316 105.712 30.4013 105.755 30.5293C105.627 30.7853 105.541 31.0413 105.456 31.2973C104.731 29.6333 101.744 29.548 100.208 30.2733C97.7761 31.468 96.5387 33.9853 95.8987 36.5027C95.3014 38.8493 94.9601 41.9213 97.6481 43.0307C99.6961 43.8413 101.147 42.5613 102.171 40.94C102.725 40.044 103.195 39.148 103.621 38.2093C103.579 38.38 103.579 38.508 103.536 38.6787C103.365 40.5133 103.621 43.5 106.053 43.628C107.291 43.6707 108.315 42.6893 108.997 41.7933C110.619 39.7453 111.557 37.1 112.283 34.5827C112.325 34.3267 111.728 34.284 111.643 34.4973ZM102.427 38.5507C101.872 39.7027 101.275 40.8547 100.379 41.7933C99.4827 42.6893 98.9281 42.604 98.5014 41.3667C97.7761 39.1053 98.5441 36.46 99.4401 34.3267C99.8241 33.4307 100.251 32.5773 100.891 31.852C101.317 31.34 101.787 30.7427 102.427 30.4867C103.792 29.9747 104.731 31.084 104.816 32.3213C104.133 34.412 103.365 36.5453 102.427 38.5507Z" fill="#D3F3EE"/>
<path d="M205.891 81.1253C205.123 83.216 204.44 85.3493 203.373 87.3547C202.776 88.4213 202.093 89.5733 201.155 90.384C200.643 90.8107 199.277 91.664 198.723 90.768C198.424 90.2987 198.723 89.616 198.851 89.1467C199.107 88.208 199.235 87.312 199.448 86.3733C200.131 83.8987 201.027 81.5093 201.923 79.0773C202.861 76.4747 203.843 73.9147 204.696 71.2693C205.379 69.136 206.488 66.32 206.019 64.1013C205.549 62.0106 203.459 60.7306 201.496 61.6266C199.917 62.3093 198.765 63.888 197.784 65.2533C195.992 67.728 194.584 70.4586 193.304 73.1893C193.005 73.744 192.749 74.3413 192.451 74.896C192.664 74.0853 192.877 73.3173 193.091 72.5066C193.432 71.2266 193.773 69.9466 194.115 68.6666C194.413 67.344 194.883 65.936 194.797 64.5706C194.584 61.712 191.853 60.2186 189.549 61.7973C187.629 63.12 186.264 65.4666 185.112 67.4293C183.363 70.288 181.912 73.36 180.547 76.432C180.205 77.1573 179.864 77.8827 179.523 78.6507C181.187 72.8906 182.68 67.088 183.96 61.2426C184.173 60.3466 181.443 60.2186 181.187 61.2426C179.821 66.9173 178.413 72.5066 176.835 78.096C175.427 83.0453 173.72 91.7067 166.893 91.28C166.339 91.2373 166.04 91.8347 166.765 91.8773C170.392 92.304 174.744 90.3413 176.621 87.0987C177.261 86.032 177.731 84.7947 178.115 83.5573C179.907 79.4187 181.571 75.2373 183.704 71.2266C184.941 68.7946 186.349 66.4053 188.013 64.272C188.653 63.504 189.379 62.6933 190.275 62.1813C192.024 61.1573 192.237 63.9306 192.067 65.0826C191.725 67.8133 190.787 70.544 190.104 73.1466C189.421 75.7067 188.739 78.2667 188.141 80.8267C187.928 81.7227 190.701 81.8933 190.957 80.8267C191.085 80.3573 191.171 79.888 191.299 79.376C193.261 75.1947 194.968 70.8853 197.485 66.9173C198.424 65.424 200.045 62.5653 201.965 62.096C204.568 61.456 202.904 67.7706 202.52 69.0933C200.984 74.256 198.851 79.2053 197.229 84.3253C196.504 86.7573 194.84 91.664 198.893 91.7493C201.027 91.8347 202.605 89.9147 203.629 88.2507C204.952 86.0747 205.891 83.6427 206.829 81.2533C206.957 80.8693 206.019 80.784 205.891 81.1253ZM215.775 81.04C215.049 82.7893 214.452 84.5813 213.428 86.2027C212.617 87.4827 210.953 89.872 209.161 89.36C206.729 88.6773 207.113 85.5627 207.625 83.728C207.839 82.8747 208.18 81.9787 208.564 81.1253C209.716 81.168 210.911 81.0827 211.849 80.4C212.66 79.8027 213.684 78.5227 213.428 77.4133C213.215 76.432 211.892 76.1333 210.996 76.176C209.801 76.2613 208.735 76.9013 207.881 77.7547C204.852 80.8267 201.78 90.6827 209.247 90.0853C213.215 89.744 215.391 84.3253 216.372 81.1253C216.457 80.8693 215.86 80.8267 215.775 81.04ZM210.868 77.7973C211.039 77.6267 211.38 77.2853 211.679 77.2427C212.361 77.1147 212.575 78.0107 212.361 78.5653C211.807 80.2293 210.313 80.528 208.82 80.6133C209.375 79.5467 210.057 78.5653 210.868 77.7973ZM228.823 69.904C229.378 68.3253 229.932 66.7466 230.487 65.168C230.956 63.8453 231.596 62.48 231.852 61.072C232.023 60.1333 229.548 60.2186 229.164 60.9013C228.524 62.1813 228.14 63.6746 227.671 65.04C227.074 66.7466 226.476 68.4533 225.879 70.16C225.068 72.5493 224.258 74.9387 223.575 77.3707C222.551 76.1333 219.991 76.0907 218.583 76.7733C216.151 77.968 214.914 80.4853 214.274 83.0027C213.676 85.3493 213.335 88.4213 216.023 89.5307C218.071 90.3413 219.522 89.0613 220.546 87.44C221.1 86.5867 221.527 85.6907 221.954 84.752C221.698 87.7813 222.21 90.8533 225.879 89.7013C228.994 88.72 229.975 83.8133 230.743 81.168C230.828 80.912 230.231 80.8693 230.188 81.0827C229.548 82.96 228.866 84.8373 227.927 86.6293C227.458 87.5253 226.818 88.72 225.836 89.104C224.172 89.872 224.215 87.824 224.3 86.7573C224.727 81.04 226.988 75.28 228.823 69.904ZM222.978 79.4187C222.338 81.3387 221.655 83.2587 220.802 85.0507C220.247 86.2027 219.65 87.3547 218.754 88.2933C217.858 89.1893 217.303 89.104 216.876 87.8667C216.151 85.6053 216.919 82.96 217.815 80.8267C218.199 79.9307 218.626 79.0773 219.266 78.352C219.692 77.84 220.162 77.2427 220.802 76.9867C222.124 76.4747 223.063 77.5413 223.191 78.736C223.106 78.9493 223.063 79.2053 222.978 79.4187ZM236.584 81.1253C235.986 82.9173 235.261 84.6667 234.322 86.288C233.853 87.1413 231.336 91.0667 230.952 88.464C230.696 86.7147 231.122 84.9227 231.506 83.216C231.976 81.168 232.658 79.1627 233.426 77.2C233.81 76.0907 231.08 75.8773 230.696 76.7733C229.757 79.248 228.904 81.808 228.52 84.4533C228.221 86.3307 228.178 88.9333 230.226 89.7867C231.805 90.4693 233.128 89.2747 234.066 88.08C235.56 86.0747 236.584 83.6 237.266 81.2107C237.352 80.9547 236.669 80.8693 236.584 81.1253ZM231.805 74C231.677 74.384 232.018 74.7253 232.445 74.8533C232.957 74.9813 233.938 75.0667 234.322 74.5547C234.749 74.0426 235.133 73.4026 234.664 72.7626C234.194 72.08 233.128 71.8666 232.36 72.1226C231.72 72.336 231.464 72.8906 231.677 73.5733C231.72 73.7013 231.762 73.872 231.805 74ZM247.222 81.1253C246.156 82.96 241.889 92.0907 238.561 87.9947C236.897 85.904 237.708 82.832 238.732 80.656C239.286 79.5893 239.926 78.5227 240.865 77.7547C241.121 77.5413 241.59 77.0293 241.932 76.9867C242.998 76.8587 243.51 78.48 243.382 79.248C243.34 79.6747 244.534 79.7173 244.62 79.248C245.089 76.4747 241.846 75.3653 239.713 76.2187C237.196 77.2427 235.702 80.4427 235.105 82.9173C234.508 85.6053 235.02 89.1893 238.22 89.8293C239.585 90.0853 241.206 89.6587 242.358 88.9333C244.918 87.2693 246.625 83.856 247.862 81.2533C247.99 80.9973 247.308 80.912 247.222 81.1253ZM261.434 80.9973C260.965 82.4053 258.277 90.64 255.93 89.2747C254.352 88.336 255.802 84.3253 256.186 83.0027C256.826 80.8693 257.637 78.7787 258.49 76.7307C258.96 75.6213 256.272 75.536 255.802 76.304C255.717 76.432 255.674 76.56 255.589 76.6453C255.504 76.816 255.504 76.9013 255.546 77.0293C255.418 77.2853 255.333 77.5413 255.248 77.7973C254.522 76.1333 251.536 76.048 250 76.7733C247.568 77.968 246.33 80.4853 245.69 83.0027C245.093 85.3493 244.752 88.4213 247.44 89.5307C249.488 90.3413 250.938 89.0613 251.962 87.44C252.517 86.544 252.986 85.648 253.413 84.7093C253.37 84.88 253.37 85.008 253.328 85.1787C253.157 87.0133 253.413 90 255.845 90.128C257.082 90.1707 258.106 89.1893 258.789 88.2933C260.41 86.2453 261.349 83.6 262.074 81.0827C262.117 80.8267 261.52 80.784 261.434 80.9973ZM252.218 85.0507C251.664 86.2027 251.066 87.3547 250.17 88.2933C249.274 89.1893 248.72 89.104 248.293 87.8667C247.568 85.6053 248.336 82.96 249.232 80.8267C249.616 79.9307 250.042 79.0773 250.682 78.352C251.109 77.84 251.578 77.2427 252.218 76.9867C253.584 76.4747 254.522 77.584 254.608 78.8213C253.925 80.912 253.157 83.0453 252.218 85.0507ZM266.681 69.904C267.235 68.3253 267.79 66.7466 268.345 65.168C268.814 63.8453 269.411 62.48 269.667 61.072C269.881 60.1333 267.363 60.2186 267.022 60.9013C266.382 62.1813 265.998 63.6746 265.529 65.04C264.931 66.7466 264.334 68.4533 263.737 70.16C262.542 73.616 261.433 77.1147 260.537 80.656C259.854 83.3867 258.19 91.4933 263.694 89.7013C266.851 88.72 267.833 83.8133 268.601 81.168C268.686 80.912 268.089 80.8693 268.003 81.0827C267.406 82.96 266.723 84.8373 265.785 86.6293C265.315 87.5253 264.675 88.72 263.694 89.104C261.987 89.872 262.073 87.824 262.158 86.7573C262.585 81.04 264.846 75.28 266.681 69.904Z" fill="#D3F3EE"/>
<path d="M0.148732 87.4L14.864 87.4743L20.9582 77.5155L26.3835 86.8797L42.5851 40.5787L58.3135 100.643L65.7759 76.3644L67.983 81.3043L73.7637 63.4367L79.5444 77.941L87.3221 59.7581L132.289 60.645L132.14 50.8348L180.893 52.0239L187.582 34.9305L193.379 49.7943L199.176 21.9989L208.243 47.1188L213.148 33.7414L225.188 56.7804L238.119 5.5L252.686 53.3617L257.145 41.0247L267.104 54.9967L294.007 55.1454L294.156 57.6723L265.84 57.7087L257.747 46.3576L252.86 57.3409L238.251 12.5143L225.954 61.8078L213.394 38.1595L208.296 51.6653L199.625 28.3323L194.002 54.871L187.696 38.9478L182.283 54.3454L134.221 53.2132V62.8747L90.0009 62.8004L80.5623 85.9881L73.9479 70.9013L68.3739 87.1772L66.2187 81.9748L58.7124 106.203L42.0649 47.2677L26.8294 91.7107L21.1068 81.3059L16.1274 90.0013H0L0.148732 87.4Z" fill="#DCE8EC"/>
<path d="M104.467 66.8899C108.063 66.8899 110.979 62.1926 110.979 56.3982C110.979 50.6037 108.063 45.9064 104.467 45.9064C100.87 45.9064 97.9551 50.6037 97.9551 56.3982C97.9551 62.1926 100.87 66.8899 104.467 66.8899Z" fill="#FF464C"/>
<path d="M164.683 66.8275C168.235 66.8275 171.116 62.1419 171.116 56.362C171.116 50.5821 168.235 45.8965 164.683 45.8965C161.13 45.8965 158.25 50.5821 158.25 56.362C158.25 62.1419 161.13 66.8275 164.683 66.8275Z" fill="#FF464C"/>
<path d="M134.342 92.5085C140.122 92.5085 144.807 89.6284 144.807 86.0757C144.807 82.523 140.122 79.6429 134.342 79.6429C128.562 79.6429 123.876 82.523 123.876 86.0757C123.876 89.6284 128.562 92.5085 134.342 92.5085Z" fill="#FF464C"/>
<path d="M134.305 32.2443C140.085 32.2443 144.771 29.3643 144.771 25.8115C144.771 22.2588 140.085 19.3788 134.305 19.3788C128.525 19.3788 123.84 22.2588 123.84 25.8115C123.84 29.3643 128.525 32.2443 134.305 32.2443Z" fill="#FF464C"/>
<path d="M164.63 45.8975H104.406V66.8656H164.63V45.8975Z" fill="#FF464C"/>
<path d="M144.795 25.7181H123.827V85.943H144.795V25.7181Z" fill="#FF464C"/>
</g>
<defs>
<clipPath id="clip0_75_401">
<rect width="294" height="106" fill="white"/>
</clipPath>
</defs>
</svg>
