<svg width="38" height="37" viewBox="0 0 38 37" fill="none" xmlns="http://www.w3.org/2000/svg">
<path d="M27.1578 23.1667H25.4678L24.8688 22.6042C26.9653 20.2292 28.2274 17.1458 28.2274 13.7917C28.2274 6.3125 22.0023 0.25 14.3225 0.25C6.64272 0.25 0.417603 6.3125 0.417603 13.7917C0.417603 21.2708 6.64272 27.3333 14.3225 27.3333C17.7666 27.3333 20.9327 26.1042 23.3714 24.0625L23.949 24.6458V26.2917L34.645 36.6875L37.8325 33.5833L27.1578 23.1667ZM14.3225 23.1667C8.99586 23.1667 4.69603 18.9792 4.69603 13.7917C4.69603 8.60417 8.99586 4.41667 14.3225 4.41667C19.6491 4.41667 23.949 8.60417 23.949 13.7917C23.949 18.9792 19.6491 23.1667 14.3225 23.1667Z" fill="#114B5F"/>
</svg>
