<svg width="68" height="68" viewBox="0 0 68 68" fill="none" xmlns="http://www.w3.org/2000/svg">
<path d="M34 0.666626C15.6 0.666626 0.666687 15.6 0.666687 34C0.666687 52.4 15.6 67.3333 34 67.3333C52.4 67.3333 67.3334 52.4 67.3334 34C67.3334 15.6 52.4 0.666626 34 0.666626ZM34 10.6666C39.5334 10.6666 44 15.1333 44 20.6666C44 26.2 39.5334 30.6666 34 30.6666C28.4667 30.6666 24 26.2 24 20.6666C24 15.1333 28.4667 10.6666 34 10.6666ZM34 58C25.6667 58 18.3 53.7333 14 47.2666C14.1 40.6333 27.3334 37 34 37C40.6334 37 53.9 40.6333 54 47.2666C49.7 53.7333 42.3334 58 34 58Z" fill="#F6F6F6"/>
</svg>
